#tb 0: 1/25
0,          9,          9,        1,   622080, 0xb3b66c5c
0,         10,         10,        1,   622080, 0x088ec02b
0,         11,         11,        1,   622080, 0x7a36db21
0,         12,         12,        1,   622080, 0x541b286f
0,         13,         13,        1,   622080, 0xb6c3e590
0,         14,         14,        1,   622080, 0x39dbed51
0,         15,         15,        1,   622080, 0x973dc728
0,         16,         16,        1,   622080, 0xd7a4f804
0,         17,         17,        1,   622080, 0xa2484762
0,         18,         18,        1,   622080, 0x0cd268d1
0,         19,         19,        1,   622080, 0x72eb663d
0,         20,         20,        1,   622080, 0x8fdbac59
0,         21,         21,        1,   622080, 0xa6f4feb9
0,         22,         22,        1,   622080, 0xadb828c6
0,         23,         23,        1,   622080, 0xea630a63
0,         24,         24,        1,   622080, 0xa901d925
0,         25,         25,        1,   622080, 0xac5e7087
0,         26,         26,        1,   622080, 0x10274a2b
0,         27,         27,        1,   622080, 0x143d541c
0,         28,         28,        1,   622080, 0xee94c93a
0,         29,         29,        1,   622080, 0xca030208
0,         30,         30,        1,   622080, 0x26f30ead
0,         31,         31,        1,   622080, 0xfc22f32c
0,         32,         32,        1,   622080, 0x940a5ff8
0,         33,         33,        1,   622080, 0x2164f805
0,         34,         34,        1,   622080, 0xa76f5aba
0,         35,         35,        1,   622080, 0x8c311471
0,         36,         36,        1,   622080, 0xa45e1d95
0,         37,         37,        1,   622080, 0x6cc61d6c
0,         38,         38,        1,   622080, 0x6983b417
0,         39,         39,        1,   622080, 0x982363c0
